<?xml version="1.0" encoding="UTF-8" standalone="no"?>
<!DOCTYPE svg PUBLIC "-//W3C//DTD SVG 1.1//EN" "http://www.w3.org/Graphics/SVG/1.1/DTD/svg11.dtd">
<!-- Created with Vectornator (http://vectornator.io/) -->
<svg height="100%" stroke-miterlimit="10" style="fill-rule:nonzero;clip-rule:evenodd;stroke-linecap:round;stroke-linejoin:round;" version="1.1" viewBox="0 0 1024 1024" width="100%" xml:space="preserve" xmlns="http://www.w3.org/2000/svg" xmlns:vectornator="http://vectornator.io" xmlns:xlink="http://www.w3.org/1999/xlink">
<defs/>
<clipPath id="ArtboardFrame">
<rect height="1024" width="1024" x="0" y="0"/>
</clipPath>
<g clip-path="url(#ArtboardFrame)" id="Layer-1" vectornator:layerName="Layer 1">
<path d="M984.049 184.506L197.949 184.506L186.293 39.7545C184.384 16.0709 166.53-2.07226 145.149-2.05691L61.2963-2.05691C38.4916-2.06567 20.0005 18.4918 20.0005 43.8536C20.0005 69.2155 38.4916 89.773 61.2963 89.7642L107.369 89.7642L154.871 678.147C158.234 720.573 178.829 766.586 214.351 797.842C150.356 888.741 208.822 1022.73 312.948 1022.73C399.335 1022.73 460.244 926.915 430.619 836.118L656.607 836.118C627.028 926.812 687.799 1022.73 774.324 1022.73C843.428 1022.65 899.429 960.368 899.505 883.515C899.429 806.662 843.428 744.382 774.324 744.297L313.224 744.297C281.848 744.297 254.527 723.289 242.732 692.597L902.546 649.453C920.562 648.284 935.807 634.234 940.188 614.764L1024.09 241.587C1027.16 227.862 1024.39 213.326 1016.56 202.178C1008.73 191.03 996.722 184.512 984.003 184.506L984.049 184.506ZM312.902 930.911C290.135 929.734 272.22 908.862 272.22 883.515C272.22 858.167 290.134 837.296 312.902 836.118C335.669 837.296 353.583 858.167 353.583 883.515C353.583 908.862 335.669 929.734 312.902 930.911ZM774.324 930.911C751.557 929.734 733.643 908.862 733.643 883.515C733.643 858.167 751.557 837.296 774.324 836.118C797.091 837.296 815.006 858.167 815.006 883.515C815.006 908.862 797.091 929.734 774.324 930.911ZM867.438 559.784L231.629 601.288L205.367 276.378L931.157 276.378L867.438 559.733L867.438 559.784Z" fill="#ffffff" fill-rule="evenodd" opacity="1" stroke="none"/>
</g>
</svg>
